<svg width="1318.880029296875px" height="239.639990234375px" xmlns="http://www.w3.org/2000/svg" viewBox="-409.44001464843745 -44.8199951171875 1318.880029296875 239.639990234375" style="background: rgba(0, 0, 0, 0) none repeat scroll 0% 0%;" preserveAspectRatio="xMidYMid"><defs><filter id="editing-extrusion" x="-100%" y="-100%" width="300%" height="300%"><feFlood result="color1" flood-color="#444"></feFlood><feConvolveMatrix order="8,8" divisor="1" kernelMatrix="1 0 0 0 0 0 0 0 0 1 0 0 0 0 0 0 0 0 1 0 0 0 0 0 0 0 0 1 0 0 0 0 0 0 0 0 1 0 0 0 0 0 0 0 0 1 0 0 0 0 0 0 0 0 1 0 0 0 0 0 0 0 0 1" in="SourceAlpha" result="extrude"></feConvolveMatrix><feComposite in="color1" in2="extrude" result="comp-extrude" operator="in"></feComposite><feOffset dx="4" dy="4" in="comp-extrude" result="offset-extrude"></feOffset><feMerge><feMergeNode in="offset-extrude"></feMergeNode><feMergeNode in="SourceGraphic"></feMergeNode></feMerge></filter></defs><g filter="url(#editing-extrusion)"><g transform="translate(-228.40426635742188, 138.01953315734863)"><path d="M13.29-66.72L13.29-66.72L13.29-66.72Q8.63-70.28 8.63-77.88L8.63-77.88L8.63-77.88Q8.63-85.49 13.63-89.46L13.63-89.46L13.63-89.46Q18.63-93.43 27.26-93.43L27.26-93.43L27.26-93.43Q32.74-93.43 45.76-91.52L45.76-91.52L55.07-90.15L55.07-90.15Q59.73-89.60 64.60-89.60L64.60-89.60L64.60-89.60Q69.46-89.60 72.75-91.65L72.75-91.65L72.75-91.65Q77.68-87.27 77.68-80.97L77.68-80.97L77.68-80.97Q77.68-74.67 72.06-70.14L72.06-70.14L72.06-70.14Q66.31-65.35 58.91-65.35L58.91-65.35L58.91-65.35Q55.35-65.35 49.59-66.31L49.59-66.31L49.59-66.31Q42.88-45.21 42.88-30.55L42.88-30.55L42.88-30.55Q42.88-15.89 50.28-8.22L50.28-8.22L50.28-8.22Q46.85-2.06 41.79 0.34L41.79 0.34L41.79 0.34Q36.72 2.74 29.11 2.74L29.11 2.74L29.11 2.74Q21.51 2.74 16.78-1.44L16.78-1.44L16.78-1.44Q12.06-5.62 12.06-14.25L12.06-14.25L12.06-14.25Q12.06-24.25 17.54-40.69L17.54-40.69L17.54-40.69Q23.02-56.99 31.24-69.46L31.24-69.46L31.24-69.46Q27.26-69.87 23.15-69.87L23.15-69.87L23.15-69.87Q14.66-69.87 13.29-66.72ZM96.86 2.74L96.86 2.74L96.86 2.74Q66.72 2.74 66.72-25.62L66.72-25.62L66.72-25.62Q66.72-45.76 77.82-58.77L77.82-58.77L77.82-58.77Q89.60-72.61 110.01-72.61L110.01-72.61L110.01-72.61Q124.81-72.61 132.34-65.76L132.34-65.76L132.34-65.76Q139.88-58.91 139.88-44.53L139.88-44.53L139.88-44.53Q139.88-22.61 128.09-9.86L128.09-9.86L128.09-9.86Q116.59 2.74 96.86 2.74ZM100.42-56.86L100.42-56.86L100.42-56.86Q98.78-53.16 97.48-47.61L97.48-47.61L97.48-47.61Q96.17-42.06 94.53-33.29L94.53-33.29L94.53-33.29Q92.89-24.52 92.89-13.70L92.89-13.70L92.89-13.70Q92.89-10.14 94.05-7.81L94.05-7.81L94.05-7.81Q95.22-5.48 98.37-5.48L98.37-5.48L98.37-5.48Q101.52-5.48 103.50-6.99L103.50-6.99L103.50-6.99Q105.49-8.49 107.00-12.06L107.00-12.06L107.00-12.06Q109.74-18.36 111.93-30.07L111.93-30.07L111.93-30.07Q114.12-41.79 114.33-46.85L114.33-46.85L114.33-46.85Q114.53-51.92 114.53-55.69L114.53-55.69L114.53-55.69Q114.53-59.46 113.44-61.92L113.44-61.92L113.44-61.92Q112.34-64.39 109.26-64.39L109.26-64.39L109.26-64.39Q106.18-64.39 104.12-62.47L104.12-62.47L104.12-62.47Q102.06-60.55 100.42-56.86ZM181.11 27.40L186.87-0.41L186.87-0.41Q182.35 2.74 175.15 2.74L175.15 2.74L175.15 2.74Q167.96 2.74 162.69 1.10L162.69 1.10L162.69 1.10Q157.41-0.55 154.13-4.11L154.13-4.11L154.13-4.11Q147.82-10.96 147.82-26.99L147.82-26.99L147.82-26.99Q147.82-47.27 159.88-60.01L159.88-60.01L159.88-60.01Q171.66-72.61 191.12-72.61L191.12-72.61L191.12-72.61Q198.10-72.61 203.17-70.28L203.17-70.28L227.42-72.61L208.79 24.66L181.11 27.40ZM178.79-5.75L178.79-5.75L178.79-5.75Q183.03-5.75 186.18-10.07L186.18-10.07L186.18-10.07Q189.33-14.39 190.70-21.78L190.70-21.78L197.97-61.92L197.97-61.92Q195.09-64.39 191.73-64.39L191.73-64.39L191.73-64.39Q188.38-64.39 186.39-63.29L186.39-63.29L186.39-63.29Q184.40-62.20 182.90-59.73L182.90-59.73L182.90-59.73Q178.92-53.29 175.77-34.66L175.77-34.66L175.77-34.66Q173.99-23.56 173.99-14.66L173.99-14.66L173.99-14.66Q173.99-5.75 178.79-5.75ZM276.47-5.75L276.47-5.75L276.47-5.75Q269.89 2.74 253.59 2.74L253.59 2.74L253.59 2.74Q245.09 2.74 238.93-2.40L238.93-2.40L238.93-2.40Q232.76-7.54 232.76-14.93L232.76-14.93L232.76-14.93Q232.76-19.04 233.17-21.10L233.17-21.10L242.35-69.87L270.16-72.61L260.16-19.73L260.16-19.73Q259.62-16.71 259.62-14.93L259.62-14.93L259.62-14.93Q259.62-6.99 264.41-6.99L264.41-6.99L264.41-6.99Q269.75-6.99 273.59-14.25L273.59-14.25L273.59-14.25Q274.82-16.58 275.37-19.59L275.37-19.59L285.10-69.87L312.09-72.61L301.95-19.18L301.95-19.18Q301.54-17.13 301.54-14.93L301.54-14.93L301.54-14.93Q301.54-12.74 302.77-10.34L302.77-10.34L302.77-10.34Q304.00-7.95 307.98-7.40L307.98-7.40L307.98-7.40Q307.15-4.11 304.28-1.92L304.28-1.92L304.28-1.92Q298.25 2.74 291.74 2.74L291.74 2.74L291.74 2.74Q285.23 2.74 281.40 0.41L281.40 0.41L281.40 0.41Q277.56-1.92 276.47-5.75ZM374.42-23.15L374.42-23.15L374.42-23.15Q377.85-20.82 377.85-15.69L377.85-15.69L377.85-15.69Q377.85-10.55 375.24-7.26L375.24-7.26L375.24-7.26Q372.64-3.97 368.39-1.78L368.39-1.78L368.39-1.78Q359.63 2.74 350.17 2.74L350.17 2.74L350.17 2.74Q340.72 2.74 335.17 0.69L335.17 0.69L335.17 0.69Q329.62-1.37 325.92-5.21L325.92-5.21L325.92-5.21Q318.66-12.47 318.66-25.76L318.66-25.76L318.66-25.76Q318.66-46.44 329.90-59.05L329.90-59.05L329.90-59.05Q341.95-72.61 362.91-72.61L362.91-72.61L362.91-72.61Q375.93-72.61 382.37-67.13L382.37-67.13L382.37-67.13Q387.16-63.02 387.16-56.31L387.16-56.31L387.16-56.31Q387.16-32.20 345.51-32.20L345.51-32.20L345.51-32.20Q344.97-28.63 344.97-25.62L344.97-25.62L344.97-25.62Q344.97-19.32 347.77-16.92L347.77-16.92L347.77-16.92Q350.58-14.52 355.79-14.52L355.79-14.52L355.79-14.52Q361.00-14.52 366.54-16.92L366.54-16.92L366.54-16.92Q372.09-19.32 374.42-23.15ZM346.47-38.09L346.47-38.09L346.47-38.09Q356.20-38.09 361.82-44.11L361.82-44.11L361.82-44.11Q367.43-49.87 367.43-59.05L367.43-59.05L367.43-59.05Q367.43-62.20 366.27-63.91L366.27-63.91L366.27-63.91Q365.11-65.62 362.78-65.62L362.78-65.62L362.78-65.62Q360.45-65.62 358.46-64.73L358.46-64.73L358.46-64.73Q356.47-63.84 354.42-60.83L354.42-60.83L354.42-60.83Q349.35-53.98 346.47-38.09ZM463.20-72.61L463.20-72.61L463.20-72.61Q468.13-72.61 471.97-71.51L471.97-71.51L471.97-71.51Q472.10-72.06 472.38-73.57L472.38-73.57L473.06-77.82L473.06-77.82Q473.61-80.56 474.43-85.08L474.43-85.08L476.62-95.90L503.89-98.64L488.68-19.18L488.68-19.18Q488.54-18.36 488.54-16.99L488.54-16.99L488.54-14.80L488.54-14.80Q488.54-11.78 490.05-9.52L490.05-9.52L490.05-9.52Q491.56-7.26 494.02-7.26L494.02-7.26L494.02-7.26Q491.28-0.82 482.93 1.92L482.93 1.92L482.93 1.92Q480.05 2.74 476.01 2.74L476.01 2.74L476.01 2.74Q471.97 2.74 468.27 0.62L468.27 0.62L468.27 0.62Q464.57-1.51 463.47-5.07L463.47-5.07L463.47-5.07Q461.28-1.51 456.90 0.62L456.90 0.62L456.90 0.62Q452.51 2.74 446.14 2.74L446.14 2.74L446.14 2.74Q439.77 2.74 434.50 1.10L434.50 1.10L434.50 1.10Q429.22-0.55 425.93-4.11L425.93-4.11L425.93-4.11Q419.91-11.10 419.91-26.99L419.91-26.99L419.91-26.99Q419.91-47.54 431.96-60.01L431.96-60.01L431.96-60.01Q444.02-72.61 463.20-72.61ZM462.24-64.39L462.24-64.39L462.24-64.39Q457.17-64.39 454.43-58.91L454.43-58.91L454.43-58.91Q451.69-53.43 448.88-39.87L448.88-39.87L448.88-39.87Q446.07-26.30 446.07-14.11L446.07-14.11L446.07-14.11Q446.07-5.75 451.00-5.75L451.00-5.75L451.00-5.75Q455.39-5.75 458.47-10.14L458.47-10.14L458.47-10.14Q461.55-14.52 462.79-21.78L462.79-21.78L470.18-61.92L470.18-61.92Q467.31-64.39 462.24-64.39ZM561.15-23.15L561.15-23.15L561.15-23.15Q564.58-20.82 564.58-15.69L564.58-15.69L564.58-15.69Q564.58-10.55 561.97-7.26L561.97-7.26L561.97-7.26Q559.37-3.97 555.12-1.78L555.12-1.78L555.12-1.78Q546.36 2.74 536.90 2.74L536.90 2.74L536.90 2.74Q527.45 2.74 521.90 0.69L521.90 0.69L521.90 0.69Q516.35-1.37 512.65-5.21L512.65-5.21L512.65-5.21Q505.39-12.47 505.39-25.76L505.39-25.76L505.39-25.76Q505.39-46.44 516.63-59.05L516.63-59.05L516.63-59.05Q528.68-72.61 549.64-72.61L549.64-72.61L549.64-72.61Q562.66-72.61 569.10-67.13L569.10-67.13L569.10-67.13Q573.89-63.02 573.89-56.31L573.89-56.31L573.89-56.31Q573.89-32.20 532.25-32.20L532.25-32.20L532.25-32.20Q531.70-28.63 531.70-25.62L531.70-25.62L531.70-25.62Q531.70-19.32 534.51-16.92L534.51-16.92L534.51-16.92Q537.31-14.52 542.52-14.52L542.52-14.52L542.52-14.52Q547.73-14.52 553.27-16.92L553.27-16.92L553.27-16.92Q558.82-19.32 561.15-23.15ZM533.20-38.09L533.20-38.09L533.20-38.09Q542.93-38.09 548.55-44.11L548.55-44.11L548.55-44.11Q554.17-49.87 554.17-59.05L554.17-59.05L554.17-59.05Q554.17-62.20 553.00-63.91L553.00-63.91L553.00-63.91Q551.84-65.62 549.51-65.62L549.51-65.62L549.51-65.62Q547.18-65.62 545.19-64.73L545.19-64.73L545.19-64.73Q543.21-63.84 541.15-60.83L541.15-60.83L541.15-60.83Q536.08-53.98 533.20-38.09ZM664.04-21.10L664.04-21.10L664.04-21.10Q666.64-17.81 666.64-11.44L666.64-11.44L666.64-11.44Q666.64-5.07 661.78-1.16L661.78-1.16L661.78-1.16Q656.91 2.74 648.42 2.74L648.42 2.74L648.42 2.74Q643.49 2.74 635.82 1.64L635.82 1.64L635.82 1.64Q620.75-0.69 616.43-0.69L616.43-0.69L616.43-0.69Q612.12-0.69 610.33-0.48L610.33-0.48L610.33-0.48Q608.55-0.27 605.68 0L605.68 0L622.25-90.42L652.26-90.42L638.56-15.07L638.56-15.07Q640.34-14.80 641.98-14.80L641.98-14.80L645.41-14.80L645.41-14.80Q656.91-14.80 664.04-21.10ZM731.31-23.15L731.31-23.15L731.31-23.15Q734.73-20.82 734.73-15.69L734.73-15.69L734.73-15.69Q734.73-10.55 732.13-7.26L732.13-7.26L732.13-7.26Q729.52-3.97 725.28-1.78L725.28-1.78L725.28-1.78Q716.51 2.74 707.06 2.74L707.06 2.74L707.06 2.74Q697.60 2.74 692.06 0.69L692.06 0.69L692.06 0.69Q686.51-1.37 682.81-5.21L682.81-5.21L682.81-5.21Q675.55-12.47 675.55-25.76L675.55-25.76L675.55-25.76Q675.55-46.44 686.78-59.05L686.78-59.05L686.78-59.05Q698.84-72.61 719.80-72.61L719.80-72.61L719.80-72.61Q732.81-72.61 739.25-67.13L739.25-67.13L739.25-67.13Q744.05-63.02 744.05-56.31L744.05-56.31L744.05-56.31Q744.05-32.20 702.40-32.20L702.40-32.20L702.40-32.20Q701.85-28.63 701.85-25.62L701.85-25.62L701.85-25.62Q701.85-19.32 704.66-16.92L704.66-16.92L704.66-16.92Q707.47-14.52 712.67-14.52L712.67-14.52L712.67-14.52Q717.88-14.52 723.43-16.92L723.43-16.92L723.43-16.92Q728.98-19.32 731.31-23.15ZM703.36-38.09L703.36-38.09L703.36-38.09Q713.08-38.09 718.70-44.11L718.70-44.11L718.70-44.11Q724.32-49.87 724.32-59.05L724.32-59.05L724.32-59.05Q724.32-62.20 723.15-63.91L723.15-63.91L723.15-63.91Q721.99-65.62 719.66-65.62L719.66-65.62L719.66-65.62Q717.33-65.62 715.35-64.73L715.35-64.73L715.35-64.73Q713.36-63.84 711.30-60.83L711.30-60.83L711.30-60.83Q706.24-53.98 703.36-38.09ZM750.90-13.70L750.90-13.70L750.90-13.70Q750.90-17.40 752.81-26.72L752.81-26.72L760.08-63.71L751.99-63.71L752.54-67.82L752.54-67.82Q768.98-72.75 784.87-84.80L784.87-84.80L791.45-84.80L788.16-69.87L798.85-69.87L797.61-63.71L787.06-63.71L780.08-26.72L780.08-26.72Q778.30-18.22 778.30-15.34L778.30-15.34L778.30-15.34Q778.30-8.77 784.05-7.40L784.05-7.40L784.05-7.40Q782.68-2.74 777.75 0L777.75 0L777.75 0Q772.82 2.74 765.83 2.74L765.83 2.74L765.83 2.74Q758.84 2.74 754.87-1.64L754.87-1.64L754.87-1.64Q750.90-6.03 750.90-13.70ZM841.04-38.50L841.04-38.50L841.04-38.50Q845.98-47.27 845.98-56.17L845.98-56.17L845.98-56.17Q845.98-62.06 841.73-62.06L841.73-62.06L841.73-62.06Q838.44-62.06 835.01-56.44L835.01-56.44L835.01-56.44Q831.45-50.83 830.36-43.57L830.36-43.57L823.23 0L794.87 2.74L808.85-69.87L831.45-72.61L828.99-58.77L828.99-58.77Q835.70-72.61 850.77-72.61L850.77-72.61L850.77-72.61Q858.72-72.61 863.03-68.50L863.03-68.50L863.03-68.50Q867.35-64.39 867.35-55.96L867.35-55.96L867.35-55.96Q867.35-47.54 861.80-42.20L861.80-42.20L861.80-42.20Q856.25-36.85 846.80-36.85L846.80-36.85L846.80-36.85Q842.69-36.85 841.04-38.50ZM875.50-4.11L875.50-4.11L875.50-4.11Q872.28-7.67 870.84-13.29L870.84-13.29L870.84-13.29Q869.40-18.91 869.40-28.09L869.40-28.09L869.40-28.09Q869.40-37.26 872.55-45.62L872.55-45.62L872.55-45.62Q875.70-53.98 881.46-60.01L881.46-60.01L881.46-60.01Q893.24-72.61 912.69-72.61L912.69-72.61L912.69-72.61Q919.68-72.61 924.75-70.28L924.75-70.28L948.18-72.61L938.04-19.18L938.04-19.18Q937.63-17.54 937.63-14.52L937.63-14.52L937.63-14.52Q937.63-11.51 939.48-9.59L939.48-9.59L939.48-9.59Q941.33-7.67 944.07-7.40L944.07-7.40L944.07-7.40Q942.70-2.74 937.70 0L937.70 0L937.70 0Q932.70 2.74 927.08 2.74L927.08 2.74L927.08 2.74Q921.46 2.74 917.69 0.62L917.69 0.62L917.69 0.62Q913.93-1.51 912.83-5.07L912.83-5.07L912.83-5.07Q910.64-1.64 905.98 0.55L905.98 0.55L905.98 0.55Q901.32 2.74 895.09 2.74L895.09 2.74L895.09 2.74Q888.86 2.74 883.79 1.10L883.79 1.10L883.79 1.10Q878.72-0.55 875.50-4.11ZM904.41-59.73L904.41-59.73L904.41-59.73Q902.83-57.27 901.46-53.09L901.46-53.09L901.46-53.09Q900.09-48.91 897.83-37.74L897.83-37.74L897.83-37.74Q895.57-26.58 895.57-18.63L895.57-18.63L895.57-18.63Q895.57-10.69 896.80-8.36L896.80-8.36L896.80-8.36Q898.04-6.03 900.23-6.03L900.23-6.03L900.23-6.03Q904.61-6.03 907.83-10.21L907.83-10.21L907.83-10.21Q911.05-14.39 912.28-21.78L912.28-21.78L919.54-61.92L919.54-61.92Q916.67-64.39 913.31-64.39L913.31-64.39L913.31-64.39Q909.95-64.39 907.97-63.29L907.97-63.29L907.97-63.29Q905.98-62.20 904.41-59.73Z" fill="#ccc"></path></g></g><style>text {
  font-size: 64px;
  font-family: Arial Black;
  dominant-baseline: central;
  text-anchor: middle;
}</style></svg>