<svg width="628.0400146484375px" height="124.439990234375px" xmlns="http://www.w3.org/2000/svg" viewBox="-64.02000732421874 12.780004882812499 628.0400146484375 124.439990234375" style="background: rgba(0, 0, 0, 0) none repeat scroll 0% 0%;" preserveAspectRatio="xMidYMid"><defs><filter id="editing-raise" x="-100%" y="-100%" width="300%" height="300%"><feFlood flood-color="#ccc" result="flood-surface"></feFlood><feFlood flood-color="#777" result="flood-extrude"></feFlood><feMorphology operator="erode" in="SourceAlpha" radius="1" result="erode"></feMorphology><feConvolveMatrix in="erode" result="shadow" order="11,8" divisor="1" kernelMatrix="0 0 0 1 1 1 1 1 0 0 0 0 0 1 0 0 0 0 0 1 0 0 0 0 1 0 0 0 0 0 1 0 0 0 0 1 0 0 0 0 0 1 0 0 0 0 1 0 0 0 0 0 1 0 0 0 0 0 1 0 0 0 1 0 0 0 0 0 0 1 1 0 1 1 0 0 0 0 0 0 0 0 1 0 0 0 0 0"></feConvolveMatrix><feOffset dx="0" dy="4" in="shadow" result="offset"></feOffset><feGaussianBlur in="offset" stdDeviation="0.2" result="blur"></feGaussianBlur><feComposite operator="in" in="flood-extrude" in2="blur" result="extrude"></feComposite><feMorphology operator="erode" in="SourceAlpha" radius="1" result="erode2"></feMorphology><feConvolveMatrix in="erode2" result="out" order="4,4" divisor="1" kernelMatrix="0 1 1 0 1 0 0 1 1 0 0 1 0 1 1 0 "></feConvolveMatrix><feComposite operator="in" in="flood-surface" in2="out" result="text"></feComposite><feMerge><feMergeNode in="extrude"></feMergeNode><feMergeNode in="text"></feMergeNode></feMerge></filter></defs><g filter="url(#editing-raise)"><g transform="translate(26.513660430908203, 104.439453125)"><path d="M6.21-31.17L6.21-31.17L6.21-31.17Q4.03-32.83 4.03-36.38L4.03-36.38L4.03-36.38Q4.03-39.94 6.37-41.79L6.37-41.79L6.37-41.79Q8.70-43.65 12.74-43.65L12.74-43.65L12.74-43.65Q15.30-43.65 21.38-42.75L21.38-42.75L25.73-42.11L25.73-42.11Q27.90-41.86 30.18-41.86L30.18-41.86L30.18-41.86Q32.45-41.86 33.98-42.82L33.98-42.82L33.98-42.82Q36.29-40.77 36.29-37.82L36.29-37.82L36.29-37.82Q36.29-34.88 33.66-32.77L33.66-32.77L33.66-32.77Q30.98-30.53 27.52-30.53L27.52-30.53L27.52-30.53Q25.86-30.53 23.17-30.98L23.17-30.98L23.17-30.98Q20.03-21.12 20.03-14.27L20.03-14.27L20.03-14.27Q20.03-7.42 23.49-3.84L23.49-3.84L23.49-3.84Q21.89-0.96 19.52 0.16L19.52 0.16L19.52 0.16Q17.15 1.28 13.60 1.28L13.60 1.28L13.60 1.28Q10.05 1.28 7.84-0.67L7.84-0.67L7.84-0.67Q5.63-2.62 5.63-6.66L5.63-6.66L5.63-6.66Q5.63-11.33 8.19-19.01L8.19-19.01L8.19-19.01Q10.75-26.62 14.59-32.45L14.59-32.45L14.59-32.45Q12.74-32.64 10.82-32.64L10.82-32.64L10.82-32.64Q6.85-32.64 6.21-31.17ZM45.25 1.28L45.25 1.28L45.25 1.28Q31.17 1.28 31.17-11.97L31.17-11.97L31.17-11.97Q31.17-21.38 36.35-27.46L36.35-27.46L36.35-27.46Q41.86-33.92 51.39-33.92L51.39-33.92L51.39-33.92Q58.30-33.92 61.82-30.72L61.82-30.72L61.82-30.72Q65.34-27.52 65.34-20.80L65.34-20.80L65.34-20.80Q65.34-10.56 59.84-4.61L59.84-4.61L59.84-4.61Q54.46 1.28 45.25 1.28ZM46.91-26.56L46.91-26.56L46.91-26.56Q46.14-24.83 45.54-22.24L45.54-22.24L45.54-22.24Q44.93-19.65 44.16-15.55L44.16-15.55L44.16-15.55Q43.39-11.46 43.39-6.40L43.39-6.40L43.39-6.40Q43.39-4.74 43.94-3.65L43.94-3.65L43.94-3.65Q44.48-2.56 45.95-2.56L45.95-2.56L45.95-2.56Q47.42-2.56 48.35-3.26L48.35-3.26L48.35-3.26Q49.28-3.97 49.98-5.63L49.98-5.63L49.98-5.63Q51.26-8.58 52.29-14.05L52.29-14.05L52.29-14.05Q53.31-19.52 53.41-21.89L53.41-21.89L53.41-21.89Q53.50-24.26 53.50-26.02L53.50-26.02L53.50-26.02Q53.50-27.78 52.99-28.93L52.99-28.93L52.99-28.93Q52.48-30.08 51.04-30.08L51.04-30.08L51.04-30.08Q49.60-30.08 48.64-29.18L48.64-29.18L48.64-29.18Q47.68-28.29 46.91-26.56ZM84.61 12.80L87.30-0.19L87.30-0.19Q85.18 1.28 81.82 1.28L81.82 1.28L81.82 1.28Q78.46 1.28 76 0.51L76 0.51L76 0.51Q73.54-0.26 72-1.92L72-1.92L72-1.92Q69.06-5.12 69.06-12.61L69.06-12.61L69.06-12.61Q69.06-22.08 74.69-28.03L74.69-28.03L74.69-28.03Q80.19-33.92 89.28-33.92L89.28-33.92L89.28-33.92Q92.54-33.92 94.91-32.83L94.91-32.83L106.24-33.92L97.54 11.52L84.61 12.80ZM83.52-2.69L83.52-2.69L83.52-2.69Q85.50-2.69 86.98-4.70L86.98-4.70L86.98-4.70Q88.45-6.72 89.09-10.18L89.09-10.18L92.48-28.93L92.48-28.93Q91.14-30.08 89.57-30.08L89.57-30.08L89.57-30.08Q88-30.08 87.07-29.57L87.07-29.57L87.07-29.57Q86.14-29.06 85.44-27.90L85.44-27.90L85.44-27.90Q83.58-24.90 82.11-16.19L82.11-16.19L82.11-16.19Q81.28-11.01 81.28-6.85L81.28-6.85L81.28-6.85Q81.28-2.69 83.52-2.69ZM129.15-2.69L129.15-2.69L129.15-2.69Q126.08 1.28 118.46 1.28L118.46 1.28L118.46 1.28Q114.50 1.28 111.62-1.12L111.62-1.12L111.62-1.12Q108.74-3.52 108.74-6.98L108.74-6.98L108.74-6.98Q108.74-8.90 108.93-9.86L108.93-9.86L113.22-32.64L126.21-33.92L121.54-9.22L121.54-9.22Q121.28-7.81 121.28-6.98L121.28-6.98L121.28-6.98Q121.28-3.26 123.52-3.26L123.52-3.26L123.52-3.26Q126.02-3.26 127.81-6.66L127.81-6.66L127.81-6.66Q128.38-7.74 128.64-9.15L128.64-9.15L133.18-32.64L145.79-33.92L141.06-8.96L141.06-8.96Q140.86-8 140.86-6.98L140.86-6.98L140.86-6.98Q140.86-5.95 141.44-4.83L141.44-4.83L141.44-4.83Q142.02-3.71 143.87-3.46L143.87-3.46L143.87-3.46Q143.49-1.92 142.14-0.90L142.14-0.90L142.14-0.90Q139.33 1.28 136.29 1.28L136.29 1.28L136.29 1.28Q133.25 1.28 131.46 0.19L131.46 0.19L131.46 0.19Q129.66-0.90 129.15-2.69ZM174.91-10.82L174.91-10.82L174.91-10.82Q176.51-9.73 176.51-7.33L176.51-7.33L176.51-7.33Q176.51-4.93 175.30-3.39L175.30-3.39L175.30-3.39Q174.08-1.86 172.10-0.83L172.10-0.83L172.10-0.83Q168 1.28 163.58 1.28L163.58 1.28L163.58 1.28Q159.17 1.28 156.58 0.32L156.58 0.32L156.58 0.32Q153.98-0.64 152.26-2.43L152.26-2.43L152.26-2.43Q148.86-5.82 148.86-12.03L148.86-12.03L148.86-12.03Q148.86-21.70 154.11-27.58L154.11-27.58L154.11-27.58Q159.74-33.92 169.54-33.92L169.54-33.92L169.54-33.92Q175.62-33.92 178.62-31.36L178.62-31.36L178.62-31.36Q180.86-29.44 180.86-26.30L180.86-26.30L180.86-26.30Q180.86-15.04 161.41-15.04L161.41-15.04L161.41-15.04Q161.15-13.38 161.15-11.97L161.15-11.97L161.15-11.97Q161.15-9.02 162.46-7.90L162.46-7.90L162.46-7.90Q163.78-6.78 166.21-6.78L166.21-6.78L166.21-6.78Q168.64-6.78 171.23-7.90L171.23-7.90L171.23-7.90Q173.82-9.02 174.91-10.82ZM161.86-17.79L161.86-17.79L161.86-17.79Q166.40-17.79 169.02-20.61L169.02-20.61L169.02-20.61Q171.65-23.30 171.65-27.58L171.65-27.58L171.65-27.58Q171.65-29.06 171.10-29.86L171.10-29.86L171.10-29.86Q170.56-30.66 169.47-30.66L169.47-30.66L169.47-30.66Q168.38-30.66 167.46-30.24L167.46-30.24L167.46-30.24Q166.53-29.82 165.57-28.42L165.57-28.42L165.57-28.42Q163.20-25.22 161.86-17.79ZM216.38-33.92L216.38-33.92L216.38-33.92Q218.69-33.92 220.48-33.41L220.48-33.41L220.48-33.41Q220.54-33.66 220.67-34.37L220.67-34.37L220.99-36.35L220.99-36.35Q221.25-37.63 221.63-39.74L221.63-39.74L222.66-44.80L235.39-46.08L228.29-8.96L228.29-8.96Q228.22-8.58 228.22-7.94L228.22-7.94L228.22-6.91L228.22-6.91Q228.22-5.50 228.93-4.45L228.93-4.45L228.93-4.45Q229.63-3.39 230.78-3.39L230.78-3.39L230.78-3.39Q229.50-0.38 225.60 0.90L225.60 0.90L225.60 0.90Q224.26 1.28 222.37 1.28L222.37 1.28L222.37 1.28Q220.48 1.28 218.75 0.29L218.75 0.29L218.75 0.29Q217.02-0.70 216.51-2.37L216.51-2.37L216.51-2.37Q215.49-0.70 213.44 0.29L213.44 0.29L213.44 0.29Q211.39 1.28 208.42 1.28L208.42 1.28L208.42 1.28Q205.44 1.28 202.98 0.51L202.98 0.51L202.98 0.51Q200.51-0.26 198.98-1.92L198.98-1.92L198.98-1.92Q196.16-5.18 196.16-12.61L196.16-12.61L196.16-12.61Q196.16-22.21 201.79-28.03L201.79-28.03L201.79-28.03Q207.42-33.92 216.38-33.92ZM215.94-30.08L215.94-30.08L215.94-30.08Q213.57-30.08 212.29-27.52L212.29-27.52L212.29-27.52Q211.01-24.96 209.70-18.62L209.70-18.62L209.70-18.62Q208.38-12.29 208.38-6.59L208.38-6.59L208.38-6.59Q208.38-2.69 210.69-2.69L210.69-2.69L210.69-2.69Q212.74-2.69 214.18-4.74L214.18-4.74L214.18-4.74Q215.62-6.78 216.19-10.18L216.19-10.18L219.65-28.93L219.65-28.93Q218.30-30.08 215.94-30.08ZM262.14-10.82L262.14-10.82L262.14-10.82Q263.74-9.73 263.74-7.33L263.74-7.33L263.74-7.33Q263.74-4.93 262.53-3.39L262.53-3.39L262.53-3.39Q261.31-1.86 259.33-0.83L259.33-0.83L259.33-0.83Q255.23 1.28 250.82 1.28L250.82 1.28L250.82 1.28Q246.40 1.28 243.81 0.32L243.81 0.32L243.81 0.32Q241.22-0.64 239.49-2.43L239.49-2.43L239.49-2.43Q236.10-5.82 236.10-12.03L236.10-12.03L236.10-12.03Q236.10-21.70 241.34-27.58L241.34-27.58L241.34-27.58Q246.98-33.92 256.77-33.92L256.77-33.92L256.77-33.92Q262.85-33.92 265.86-31.36L265.86-31.36L265.86-31.36Q268.10-29.44 268.10-26.30L268.10-26.30L268.10-26.30Q268.10-15.04 248.64-15.04L248.64-15.04L248.64-15.04Q248.38-13.38 248.38-11.97L248.38-11.97L248.38-11.97Q248.38-9.02 249.70-7.90L249.70-7.90L249.70-7.90Q251.01-6.78 253.44-6.78L253.44-6.78L253.44-6.78Q255.87-6.78 258.46-7.90L258.46-7.90L258.46-7.90Q261.06-9.02 262.14-10.82ZM249.09-17.79L249.09-17.79L249.09-17.79Q253.63-17.79 256.26-20.61L256.26-20.61L256.26-20.61Q258.88-23.30 258.88-27.58L258.88-27.58L258.88-27.58Q258.88-29.06 258.34-29.86L258.34-29.86L258.34-29.86Q257.79-30.66 256.70-30.66L256.70-30.66L256.70-30.66Q255.62-30.66 254.69-30.24L254.69-30.24L254.69-30.24Q253.76-29.82 252.80-28.42L252.80-28.42L252.80-28.42Q250.43-25.22 249.09-17.79ZM310.21-9.86L310.21-9.86L310.21-9.86Q311.42-8.32 311.42-5.34L311.42-5.34L311.42-5.34Q311.42-2.37 309.15-0.54L309.15-0.54L309.15-0.54Q306.88 1.28 302.91 1.28L302.91 1.28L302.91 1.28Q300.61 1.28 297.02 0.77L297.02 0.77L297.02 0.77Q289.98-0.32 287.97-0.32L287.97-0.32L287.97-0.32Q285.95-0.32 285.12-0.22L285.12-0.22L285.12-0.22Q284.29-0.13 282.94 0L282.94 0L290.69-42.24L304.70-42.24L298.30-7.04L298.30-7.04Q299.14-6.91 299.90-6.91L299.90-6.91L301.50-6.91L301.50-6.91Q306.88-6.91 310.21-9.86ZM341.63-10.82L341.63-10.82L341.63-10.82Q343.23-9.73 343.23-7.33L343.23-7.33L343.23-7.33Q343.23-4.93 342.02-3.39L342.02-3.39L342.02-3.39Q340.80-1.86 338.82-0.83L338.82-0.83L338.82-0.83Q334.72 1.28 330.30 1.28L330.30 1.28L330.30 1.28Q325.89 1.28 323.30 0.32L323.30 0.32L323.30 0.32Q320.70-0.64 318.98-2.43L318.98-2.43L318.98-2.43Q315.58-5.82 315.58-12.03L315.58-12.03L315.58-12.03Q315.58-21.70 320.83-27.58L320.83-27.58L320.83-27.58Q326.46-33.92 336.26-33.92L336.26-33.92L336.26-33.92Q342.34-33.92 345.34-31.36L345.34-31.36L345.34-31.36Q347.58-29.44 347.58-26.30L347.58-26.30L347.58-26.30Q347.58-15.04 328.13-15.04L328.13-15.04L328.13-15.04Q327.87-13.38 327.87-11.97L327.87-11.97L327.87-11.97Q327.87-9.02 329.18-7.90L329.18-7.90L329.18-7.90Q330.50-6.78 332.93-6.78L332.93-6.78L332.93-6.78Q335.36-6.78 337.95-7.90L337.95-7.90L337.95-7.90Q340.54-9.02 341.63-10.82ZM328.58-17.79L328.58-17.79L328.58-17.79Q333.12-17.79 335.74-20.61L335.74-20.61L335.74-20.61Q338.37-23.30 338.37-27.58L338.37-27.58L338.37-27.58Q338.37-29.06 337.82-29.86L337.82-29.86L337.82-29.86Q337.28-30.66 336.19-30.66L336.19-30.66L336.19-30.66Q335.10-30.66 334.18-30.24L334.18-30.24L334.18-30.24Q333.25-29.82 332.29-28.42L332.29-28.42L332.29-28.42Q329.92-25.22 328.58-17.79ZM350.78-6.40L350.78-6.40L350.78-6.40Q350.78-8.13 351.68-12.48L351.68-12.48L355.07-29.76L351.30-29.76L351.55-31.68L351.55-31.68Q359.23-33.98 366.66-39.62L366.66-39.62L369.73-39.62L368.19-32.64L373.18-32.64L372.61-29.76L367.68-29.76L364.42-12.48L364.42-12.48Q363.58-8.51 363.58-7.17L363.58-7.17L363.58-7.17Q363.58-4.10 366.27-3.46L366.27-3.46L366.27-3.46Q365.63-1.28 363.33 0L363.33 0L363.33 0Q361.02 1.28 357.76 1.28L357.76 1.28L357.76 1.28Q354.50 1.28 352.64-0.77L352.64-0.77L352.64-0.77Q350.78-2.82 350.78-6.40ZM392.90-17.98L392.90-17.98L392.90-17.98Q395.20-22.08 395.20-26.24L395.20-26.24L395.20-26.24Q395.20-28.99 393.22-28.99L393.22-28.99L393.22-28.99Q391.68-28.99 390.08-26.37L390.08-26.37L390.08-26.37Q388.42-23.74 387.90-20.35L387.90-20.35L384.58 0L371.33 1.28L377.86-32.64L388.42-33.92L387.26-27.46L387.26-27.46Q390.40-33.92 397.44-33.92L397.44-33.92L397.44-33.92Q401.15-33.92 403.17-32L403.17-32L403.17-32Q405.18-30.08 405.18-26.14L405.18-26.14L405.18-26.14Q405.18-22.21 402.59-19.71L402.59-19.71L402.59-19.71Q400-17.22 395.58-17.22L395.58-17.22L395.58-17.22Q393.66-17.22 392.90-17.98ZM408.99-1.92L408.99-1.92L408.99-1.92Q407.49-3.58 406.82-6.21L406.82-6.21L406.82-6.21Q406.14-8.83 406.14-13.12L406.14-13.12L406.14-13.12Q406.14-17.41 407.62-21.31L407.62-21.31L407.62-21.31Q409.09-25.22 411.78-28.03L411.78-28.03L411.78-28.03Q417.28-33.92 426.37-33.92L426.37-33.92L426.37-33.92Q429.63-33.92 432-32.83L432-32.83L442.94-33.92L438.21-8.96L438.21-8.96Q438.02-8.19 438.02-6.78L438.02-6.78L438.02-6.78Q438.02-5.38 438.88-4.48L438.88-4.48L438.88-4.48Q439.74-3.58 441.02-3.46L441.02-3.46L441.02-3.46Q440.38-1.28 438.05 0L438.05 0L438.05 0Q435.71 1.28 433.09 1.28L433.09 1.28L433.09 1.28Q430.46 1.28 428.70 0.29L428.70 0.29L428.70 0.29Q426.94-0.70 426.43-2.37L426.43-2.37L426.43-2.37Q425.41-0.77 423.23 0.26L423.23 0.26L423.23 0.26Q421.06 1.28 418.14 1.28L418.14 1.28L418.14 1.28Q415.23 1.28 412.86 0.51L412.86 0.51L412.86 0.51Q410.50-0.26 408.99-1.92ZM422.50-27.90L422.50-27.90L422.50-27.90Q421.76-26.75 421.12-24.80L421.12-24.80L421.12-24.80Q420.48-22.85 419.42-17.63L419.42-17.63L419.42-17.63Q418.37-12.42 418.37-8.70L418.37-8.70L418.37-8.70Q418.37-4.99 418.94-3.90L418.94-3.90L418.94-3.90Q419.52-2.82 420.54-2.82L420.54-2.82L420.54-2.82Q422.59-2.82 424.10-4.77L424.10-4.77L424.10-4.77Q425.60-6.72 426.18-10.18L426.18-10.18L429.57-28.93L429.57-28.93Q428.22-30.08 426.66-30.08L426.66-30.08L426.66-30.08Q425.09-30.08 424.16-29.57L424.16-29.57L424.16-29.57Q423.23-29.06 422.50-27.90Z"></path></g></g><style>text {
  font-size: 64px;
  font-family: Arial Black;
  dominant-baseline: central;
  text-anchor: middle;
}</style></svg>